<svg width="113" height="65" viewBox="0 0 113 24" fill="none" xmlns="http://www.w3.org/2000/svg">
<g clip-path="url(#clip0_702_146726)">
<path fill-rule="evenodd" clip-rule="evenodd" d="M23.8187 14.0888C23.9518 13.3325 24.0143 12.554 23.9982 11.7553C23.8711 5.33375 18.6011 0.0940532 12.1776 0.00127947C5.4676 -0.0955279 0 5.31359 0 11.9993C0 12.7113 0.0625214 13.4111 0.181514 14.0888C0.207733 14.234 0.383196 14.2925 0.492104 14.1936L7.00442 8.37915C9.85015 5.83796 14.15 5.83796 16.9957 8.37915L23.5081 14.1936C23.617 14.2925 23.7924 14.234 23.8187 14.0888ZM21.6748 18.5903L13.9988 11.7372C12.8613 10.7207 11.1409 10.7207 10.0034 11.7372L2.32539 18.5903C2.19833 18.7033 2.17615 18.8949 2.27497 19.032C4.45717 22.0411 7.99871 23.9994 12.0001 23.9994C16.0015 23.9994 19.543 22.0411 21.7252 19.032C21.824 18.8949 21.7998 18.7033 21.6748 18.5903Z" fill="#0077FF"/>
</g>
<path fill-rule="evenodd" clip-rule="evenodd" d="M50.4216 7.02681H38.8002V8.36887H36.401V4.63387H43.0241V3.20001H46.0358V4.63387H52.8207V8.36887H50.4216V7.02681ZM77.3073 11.2473H78.1377C77.6946 11.9167 76.8497 12.9124 75.3021 13.9736L76.6476 15.9614C77.3916 15.463 78.0172 14.9476 78.542 14.4404H80.9672C79.9131 15.515 78.3317 16.9146 76.1042 18.3918L77.364 20.2783C80.9271 17.9127 82.9936 15.6568 83.9605 14.4404H85.709C84.8809 15.4705 83.6094 16.8311 81.7188 18.3823L83.1436 20.2498C85.8838 18.2443 87.6351 15.9095 88.5634 14.4404H89.7712V17.5994C89.7712 17.9317 89.5014 18.2007 89.1682 18.2007H87.5116L87.9052 20.2582H90.409C91.3452 20.2582 92.1069 19.5017 92.1037 18.5679V12H80.4622C80.621 11.7206 80.7458 11.4668 80.8426 11.2473H90.8518V3.60001H77.3073V11.2473ZM88.6018 9.10439H79.6049V8.23586H88.6018V9.10439ZM79.6049 5.78087V6.40001H88.6018V5.78087H79.6049ZM102.967 3.60001H108.99H111.335H111.396V10.8V11.0352V13.1929H100.568V11.0352V10.8V5.99295V3.60001H102.967ZM108.99 10.8V5.99295H102.967V10.8H108.99ZM98.2172 8.80001H93.75V11.1929H95.7552V18.9422C95.7552 19.6576 96.336 20.2368 97.0532 20.2368H99.0683L99.3381 17.8439H98.6494C98.4114 17.8439 98.2178 17.6508 98.2178 17.4134V11H98.2172V8.80001ZM99.7656 18.3934L101.705 20.0362C103.25 18.4978 104.497 16.681 105.294 15.3009L103.212 14C102.003 16.0289 101.105 17.0197 99.7656 18.3934ZM112.599 18.8L110.313 20.1976C109.342 18.5675 108.165 16.9627 106.984 15.6301L108.736 14C109.879 15.0509 111.898 17.6605 112.599 18.8ZM68.1576 6.07524V5.63527H69.8776V8.50616C69.8776 9.22151 70.4584 9.80075 71.1756 9.80075H73.5081V7.40781H72.7084C72.4704 7.40781 72.2768 7.21473 72.2768 6.97734V3.60001H65.7584V6.07524C65.7584 8.05036 65.276 9.79758 65.276 9.79758H67.8053C67.8053 9.80075 68.1576 8.08201 68.1576 6.07524ZM61.1867 7.60001L61.5612 10.2905H59.6349L59.2604 7.60001H61.1867ZM61.1867 14H59.2604L59.6063 16.6936H61.5326L61.1867 14ZM58.4279 3.20001H61.4395L60.9857 4.63387H64.4131V11.015V13.408V18.9946C64.4131 19.71 63.8323 20.2892 63.1151 20.2892H61.338L61.0682 17.8963H61.7569C61.9949 17.8963 62.1884 17.7032 62.1884 17.4658V13.408H59.0213V15.2945C59.0213 17.4088 58.0629 20.2892 58.0629 20.2892H55.651C55.651 20.2892 56.73 17.2696 56.73 15.2945V13.408H55.651V11.015H56.73V4.63387H57.9709L58.4279 3.20001ZM62.1884 11.015V7.02681H59.0213V11.015H62.1884ZM53.3083 17.7173C51.4359 17.4166 49.389 16.9482 47.9768 16.3753C49.0177 15.2516 49.865 13.8621 50.5378 12.1592H53.3686V9.76623H44.5145C44.8065 9.11102 45.0572 8.49379 45.219 8.00001H42.3407C42.1883 8.42099 41.9059 9.05404 41.5568 9.76623H36V12.1592H40.2779C39.732 13.0961 39.1767 13.938 38.7387 14.4097C39.9732 15.3339 41.1252 16.0967 42.3089 16.7551C40.5952 17.4863 38.2024 17.8345 36.0539 17.8345L36.33 20.2242C40.0462 20.1957 43.3562 19.6007 45.6125 18.2776C47.5452 19.0056 49.8523 19.6861 53.029 20.1799L53.3083 17.7173ZM44.9175 15.182C43.9433 14.7357 43.0737 14.2641 42.2613 13.7544C42.5787 13.3778 42.9436 12.808 43.3117 12.156H47.4436C46.7518 13.3683 45.9013 14.3717 44.9175 15.182ZM70.8856 17.309C71.6187 17.6603 72.4438 17.9515 73.3387 18.1699L73.0848 20.4204C71.5743 20.183 70.1779 19.6766 68.9752 18.9454C67.8517 19.6797 66.5474 20.202 65.1416 20.4331L64.875 18.1288V18.0844C65.6144 17.9388 66.3189 17.6698 66.9663 17.3216C66.2364 16.5398 65.662 15.6377 65.278 14.6375H67.7185C67.9945 15.1091 68.3658 15.5522 68.8197 15.9606C69.5845 15.2136 70.1335 14.3748 70.3652 13.6024H65.3034V11.2H72.8913V13.6024C72.5771 14.9477 71.8694 16.2233 70.8856 17.309ZM98.5011 7.42364L97.8378 3.60001H94.9531L95.6196 7.42364H98.5011Z" fill="#002266"/>
<defs>
<clipPath id="clip0_702_146726">
<rect width="65" height="65" fill="white"/>
</clipPath>
</defs>
</svg>
